<svg width="59" height="44" viewBox="0 0 59 44" fill="none" xmlns="http://www.w3.org/2000/svg">
<path d="M0.843048 8.98577C0.843048 6.76126 1.88608 4.62787 3.74269 3.05491C5.5993 1.48195 8.11741 0.598267 10.743 0.598267H13.443C14.1591 0.598267 14.8459 0.83927 15.3522 1.26826C15.8586 1.69725 16.1431 2.27908 16.1431 2.88577C16.1431 3.49245 15.8586 4.07428 15.3522 4.50327C14.8459 4.93226 14.1591 5.17327 13.443 5.17327H10.743C8.25905 5.17327 6.24305 6.88127 6.24305 8.98577V11.2733C6.24305 11.8799 5.95859 12.4618 5.45224 12.8908C4.94589 13.3198 4.25913 13.5608 3.54305 13.5608C2.82696 13.5608 2.14021 13.3198 1.63386 12.8908C1.12751 12.4618 0.843048 11.8799 0.843048 11.2733V8.98577ZM43.1431 2.88577C43.1431 2.27908 43.4275 1.69725 43.9339 1.26826C44.4402 0.83927 45.127 0.598267 45.8431 0.598267H48.5431C51.1687 0.598267 53.6868 1.48195 55.5434 3.05491C57.4 4.62787 58.4431 6.76126 58.4431 8.98577V11.2733C58.4431 11.8799 58.1586 12.4618 57.6522 12.8908C57.1459 13.3198 56.4591 13.5608 55.7431 13.5608C55.027 13.5608 54.3402 13.3198 53.8339 12.8908C53.3275 12.4618 53.0431 11.8799 53.0431 11.2733V8.98577C53.0431 6.88127 51.0271 5.17327 48.5431 5.17327H45.8431C45.127 5.17327 44.4402 4.93226 43.9339 4.50327C43.4275 4.07428 43.1431 3.49245 43.1431 2.88577ZM3.54305 30.3358C4.25913 30.3358 4.94589 30.5768 5.45224 31.0058C5.95859 31.4347 6.24305 32.0166 6.24305 32.6233V34.9108C6.24305 37.0153 8.25905 38.7233 10.743 38.7233H13.443C14.1591 38.7233 14.8459 38.9643 15.3522 39.3933C15.8586 39.8223 16.1431 40.4041 16.1431 41.0108C16.1431 41.6175 15.8586 42.1993 15.3522 42.6283C14.8459 43.0573 14.1591 43.2983 13.443 43.2983H10.743C8.11741 43.2983 5.5993 42.4146 3.74269 40.8416C1.88608 39.2687 0.843048 37.1353 0.843048 34.9108V32.6233C0.843048 32.0166 1.12751 31.4347 1.63386 31.0058C2.14021 30.5768 2.82696 30.3358 3.54305 30.3358ZM55.7431 30.3358C56.4591 30.3358 57.1459 30.5768 57.6522 31.0058C58.1586 31.4347 58.4431 32.0166 58.4431 32.6233V34.9108C58.4431 37.1353 57.4 39.2687 55.5434 40.8416C53.6868 42.4146 51.1687 43.2983 48.5431 43.2983H45.8431C45.127 43.2983 44.4402 43.0573 43.9339 42.6283C43.4275 42.1993 43.1431 41.6175 43.1431 41.0108C43.1431 40.4041 43.4275 39.8223 43.9339 39.3933C44.4402 38.9643 45.127 38.7233 45.8431 38.7233H48.5431C51.0271 38.7233 53.0431 37.0153 53.0431 34.9108V32.6233C53.0431 32.0166 53.3275 31.4347 53.8339 31.0058C54.3402 30.5768 55.027 30.3358 55.7431 30.3358ZM13.443 9.74827C14.1591 9.74827 14.8459 9.98927 15.3522 10.4183C15.8586 10.8472 16.1431 11.4291 16.1431 12.0358V31.8608C16.1431 32.4674 15.8586 33.0493 15.3522 33.4783C14.8459 33.9073 14.1591 34.1483 13.443 34.1483C12.727 34.1483 12.0402 33.9073 11.5339 33.4783C11.0275 33.0493 10.743 32.4674 10.743 31.8608V12.0358C10.743 11.4291 11.0275 10.8472 11.5339 10.4183C12.0402 9.98927 12.727 9.74827 13.443 9.74827ZM26.9431 12.0358C26.9431 11.4291 26.6586 10.8472 26.1522 10.4183C25.6459 9.98927 24.9591 9.74827 24.2431 9.74827C23.527 9.74827 22.8402 9.98927 22.3339 10.4183C21.8275 10.8472 21.5431 11.4291 21.5431 12.0358V31.8608C21.5431 32.4674 21.8275 33.0493 22.3339 33.4783C22.8402 33.9073 23.527 34.1483 24.2431 34.1483C24.9591 34.1483 25.6459 33.9073 26.1522 33.4783C26.6586 33.0493 26.9431 32.4674 26.9431 31.8608V12.0358ZM35.0431 9.74827C35.7591 9.74827 36.4459 9.98927 36.9522 10.4183C37.4586 10.8472 37.7431 11.4291 37.7431 12.0358V31.8608C37.7431 32.4674 37.4586 33.0493 36.9522 33.4783C36.4459 33.9073 35.7591 34.1483 35.0431 34.1483C34.327 34.1483 33.6402 33.9073 33.1339 33.4783C32.6275 33.0493 32.3431 32.4674 32.3431 31.8608V12.0358C32.3431 11.4291 32.6275 10.8472 33.1339 10.4183C33.6402 9.98927 34.327 9.74827 35.0431 9.74827ZM48.5431 12.0358C48.5431 11.4291 48.2586 10.8472 47.7522 10.4183C47.2459 9.98927 46.5591 9.74827 45.8431 9.74827C45.127 9.74827 44.4402 9.98927 43.9339 10.4183C43.4275 10.8472 43.1431 11.4291 43.1431 12.0358V31.8608C43.1431 32.4674 43.4275 33.0493 43.9339 33.4783C44.4402 33.9073 45.127 34.1483 45.8431 34.1483C46.5591 34.1483 47.2459 33.9073 47.7522 33.4783C48.2586 33.0493 48.5431 32.4674 48.5431 31.8608V12.0358Z" fill="#3DD5A1"/>
</svg>
