<svg width="61" height="48" viewBox="0 0 61 48" fill="none" xmlns="http://www.w3.org/2000/svg">
<path d="M33.4145 36.9166C33.4145 36.095 33.5229 35.2975 33.6583 34.5H6.33121V20H49.6645V22.4166C51.5604 22.4166 53.375 22.7308 55.0812 23.2625V5.49996C55.0812 2.81746 52.6708 0.666626 49.6645 0.666626H6.33121C3.32496 0.666626 0.914539 2.81746 0.914539 5.49996V34.5C0.914539 35.7818 1.48522 37.0112 2.50104 37.9176C3.51687 38.8241 4.89462 39.3333 6.33121 39.3333H33.6583C33.5229 38.5358 33.4145 37.7383 33.4145 36.9166ZM6.33121 5.49996H49.6645V10.3333H6.33121V5.49996Z" fill="#C7C7C7"/>
<path d="M49.8879 41.1994V43.1382H48.1113V41.2875C46.5906 41.2012 45.3879 40.7789 44.3441 39.7356L45.8702 38.233C46.6332 38.9843 47.6672 39.2348 48.7855 39.2348C50.1757 39.2348 50.9218 38.7175 50.9218 37.7649C50.9218 37.3478 50.8037 36.9972 50.5487 36.7631C50.3116 36.5464 50.0406 36.4289 49.481 36.346L48.0225 36.1456C46.9885 35.9954 46.2264 35.6784 45.6828 35.1603C45.1072 34.5929 44.8185 33.8251 44.8185 32.8225C44.8185 30.9614 46.0461 29.59 48.1113 29.2817V27.5934H49.8879V29.2619C51.1155 29.3871 52.0775 29.7973 52.9213 30.6013L51.4299 32.0539C50.6669 31.3354 49.752 31.2361 48.9543 31.2361C47.7 31.2361 47.0898 31.92 47.0898 32.7387C47.0898 33.0393 47.1919 33.3571 47.446 33.5903C47.6832 33.8079 48.0731 33.991 48.5652 34.0575L49.9882 34.2578C51.0906 34.4081 51.7852 34.7086 52.2942 35.1758C52.9391 35.7769 53.2269 36.6457 53.2269 37.6975C53.2269 39.6406 51.835 40.8601 49.8879 41.1994Z" fill="#C7C7C7"/>
<path fill-rule="evenodd" clip-rule="evenodd" d="M48.9543 47.0018C55.7245 47.0018 60.4543 41.8531 60.4543 35.5018C60.4543 29.5001 55.3056 24.0018 48.9543 24.0018C42.603 24.0018 37.4543 29.1505 37.4543 35.5018C37.7062 43.0001 42.7062 47.0018 48.9543 47.0018ZM48.9543 44.502C54.8733 45.0187 58.1367 40.0001 57.9542 35.5497C57.7062 29.5001 52.9213 26.502 48.9543 26.502C43.7062 26.5001 40.4542 29.8048 40.4542 35.5018C40.4542 39.7356 43.2062 44.0001 48.9543 44.502Z" fill="#C7C7C7"/>
</svg>
