<svg width="49" height="42" viewBox="0 0 49 42" fill="none" xmlns="http://www.w3.org/2000/svg">
<path d="M16.209 25.4571C17.9921 25.4567 19.7248 26.0596 21.1346 27.1712C22.5445 28.2829 23.5514 29.84 23.9972 31.5979H46.3646C46.867 31.597 47.3515 31.7876 47.7227 32.1322C48.094 32.4768 48.3251 32.9505 48.3705 33.4599C48.4158 33.9693 48.2723 34.4776 47.968 34.8846C47.6637 35.2916 47.2208 35.5679 46.7265 35.659L46.3646 35.6917L23.9972 35.6958C23.5529 37.4552 22.5466 39.0142 21.1367 40.1274C19.7267 41.2406 17.9932 41.8447 16.209 41.8447C14.4249 41.8447 12.6914 41.2406 11.2814 40.1274C9.87145 39.0142 8.86513 37.4552 8.42085 35.6958L2.13642 35.6917C1.63405 35.6927 1.14953 35.5021 0.778283 35.1575C0.407036 34.8129 0.175964 34.3392 0.130572 33.8298C0.0851803 33.3204 0.228757 32.8121 0.533029 32.4051C0.837301 31.9981 1.28022 31.7218 1.77456 31.6307L2.13642 31.5979H8.42085C8.86662 29.84 9.87359 28.2829 11.2834 27.1712C12.6932 26.0596 14.4259 25.4567 16.209 25.4571ZM16.209 29.551C15.1427 29.551 14.12 29.9823 13.3659 30.75C12.6119 31.5178 12.1883 32.5591 12.1883 33.6448C12.1883 34.7306 12.6119 35.7719 13.3659 36.5396C14.12 37.3074 15.1427 37.7387 16.209 37.7387C17.2754 37.7387 18.2981 37.3074 19.0521 36.5396C19.8062 35.7719 20.2298 34.7306 20.2298 33.6448C20.2298 32.5591 19.8062 31.5178 19.0521 30.75C18.2981 29.9823 17.2754 29.551 16.209 29.551ZM32.292 0.894043C34.0751 0.893582 35.8078 1.49656 37.2176 2.60816C38.6274 3.71976 39.6344 5.27693 40.0802 7.03482H46.3646C46.867 7.03387 47.3515 7.22448 47.7227 7.5691C48.094 7.91371 48.3251 8.38737 48.3705 8.89679C48.4158 9.4062 48.2723 9.91447 47.968 10.3215C47.6637 10.7285 47.2208 11.0048 46.7265 11.0959L46.3646 11.1287L40.0802 11.1328C39.6359 12.8921 38.6296 14.4511 37.2196 15.5643C35.8097 16.6775 34.0762 17.2816 32.292 17.2816C30.5078 17.2816 28.7743 16.6775 27.3644 15.5643C25.9544 14.4511 24.9481 12.8921 24.5038 11.1328L2.13642 11.1287C1.63405 11.1296 1.14953 10.939 0.778283 10.5944C0.407036 10.2498 0.175964 9.77611 0.130572 9.26669C0.0851803 8.75727 0.228757 8.24901 0.533029 7.84199C0.837301 7.43497 1.28022 7.1587 1.77456 7.06757L2.13642 7.03482H24.5038C24.9496 5.27693 25.9566 3.71976 27.3664 2.60816C28.7762 1.49656 30.5089 0.893582 32.292 0.894043ZM32.292 4.98789C31.2256 4.98789 30.2029 5.41921 29.4489 6.18695C28.6949 6.9547 28.2713 7.99598 28.2713 9.08174C28.2713 10.1675 28.6949 11.2088 29.4489 11.9765C30.2029 12.7443 31.2256 13.1756 32.292 13.1756C33.3584 13.1756 34.3811 12.7443 35.1351 11.9765C35.8891 11.2088 36.3127 10.1675 36.3127 9.08174C36.3127 7.99598 35.8891 6.9547 35.1351 6.18695C34.3811 5.41921 33.3584 4.98789 32.292 4.98789Z"/>
</svg>
