<svg width="40" height="44" viewBox="0 0 40 44" fill="none" xmlns="http://www.w3.org/2000/svg">
<path d="M9.00065 14.0118C7.79009 14.0118 6.84275 13.4697 6.84275 11.9468C6.84275 10.4239 7.79009 9.63306 9.00065 9.63306C10.2901 9.63306 11.1585 10.2916 11.1585 11.9468C11.1585 13.4961 10.2901 13.9337 9.00065 14.0118ZM13.8559 11.9468C13.8559 10.8025 14.5775 9.88185 15.4743 9.88185H30.5796C31.4765 9.88185 32.198 10.8025 32.198 11.9468C32.198 13.0912 31.4765 14.0118 30.5796 14.0118H15.4743C14.5775 14.0118 13.8559 13.0912 13.8559 11.9468ZM13.8559 20.2067C13.8559 19.0623 14.5775 18.1417 15.4743 18.1417H30.5796C31.4765 18.1417 32.198 19.0623 32.198 20.2067C32.198 21.351 31.4765 22.2717 30.5796 22.2717H15.4743C14.5775 22.2717 13.8559 21.351 13.8559 20.2067ZM13.8559 28.4666C13.8559 27.3222 14.5775 26.4016 15.4743 26.4016L22.7996 26.3752L30.5796 26.4016C31.4765 26.4016 32.198 27.3222 32.198 28.4666C32.198 29.6109 31.4765 30.5315 30.5796 30.5315H15.4743C14.5775 30.5315 13.8559 29.6109 13.8559 28.4666ZM0.34201 6.13964C0.34201 3.09811 2.274 0.633057 4.6578 0.633057H34.8683C37.2488 0.633057 39.1841 3.09811 39.1841 6.13964C39.1841 6.13964 39.1841 32.6353 39.1841 35.6725C39.1841 38.7098 37.2488 41.1791 34.8683 41.1791C32.4879 41.1791 19.763 41.1791 19.763 41.1791H4.6578C2.274 41.1791 0.34201 38.7098 0.34201 35.6725V6.13964ZM3.57885 6.13964V35.6725C3.57885 36.4297 4.06168 37.0492 4.6578 37.0492H34.8683C35.4618 37.0492 35.9473 36.4297 35.9473 35.6725V6.13964C35.9473 5.37904 35.4618 4.76299 34.8683 4.76299H4.6578C4.06168 4.76299 3.57885 5.37904 3.57885 6.13964Z" fill="#C7C7C7"/>
<path d="M6.68336 20.3987C6.68336 21.9216 7.6307 22.4636 8.84126 22.4636C10.1307 22.3855 10.9992 21.9479 10.9992 20.3987C10.9992 18.7435 10.1307 18.0849 8.84126 18.0849C7.6307 18.0849 6.68336 18.8758 6.68336 20.3987Z" fill="#C7C7C7"/>
<path d="M6.68336 28.6585C6.68336 30.1814 7.6307 30.7235 8.84126 30.7235C10.1307 30.6454 10.9992 30.2078 10.9992 28.6585C10.9992 27.0033 10.1307 26.3448 8.84126 26.3448C7.6307 26.3448 6.68336 27.1356 6.68336 28.6585Z" fill="#C7C7C7"/>
<path d="M23.2197 26.3752C23.2197 26.3752 33.9788 19.662 39.1834 29.3087V42.326C39.1834 42.326 26.6853 45.309 22.2971 41.1791C17.9088 37.0492 20.2197 30.5315 20.2197 30.5315C21.1094 28.3562 21.7565 27.4816 23.2197 26.3752Z" fill="#FDFDFD"/>
<path fill-rule="evenodd" clip-rule="evenodd" d="M30.1834 43.0091C35.1539 43.0091 39.1834 38.9797 39.1834 34.0091C39.1834 29.0386 34.943 25.1529 29.9725 25.1529C25.0019 25.1529 21.1834 29.0386 21.1834 34.0091C21.1834 38.9797 25.2128 43.0091 30.1834 43.0091ZM30.1834 40.6705C33.8632 40.6705 36.8464 37.6881 36.8464 34.0091C36.8464 30.3301 33.8632 27.3477 30.1834 27.3477C26.5035 27.3477 23.5204 30.3301 23.5204 34.0091C23.5204 37.6881 26.5035 40.6705 30.1834 40.6705Z" fill="#C7C7C7"/>
<path d="M32.4842 31.1077L29.3083 34.9241L27.7341 33.3343C27.2493 32.8265 26.6594 33.0257 26.468 33.1507C26.1101 33.3248 25.9852 33.7009 25.9852 34.0117C25.9852 34.3421 26.1438 34.6077 26.3591 34.807C26.6757 35.1521 28.4607 36.9202 28.4607 36.9202C29.192 37.622 29.7456 37.5673 30.4191 36.7323L33.9788 32.4729C35.1676 31.1955 33.4385 29.8667 32.4842 31.1077Z" fill="#C7C7C7"/>
</svg>
